<mxfile host="Electron" modified="2024-05-10T11:50:59.847Z" agent="Mozilla/5.0 (Windows NT 10.0; Win64; x64) AppleWebKit/537.36 (KHTML, like Gecko) draw.io/24.2.5 Chrome/120.0.6099.109 Electron/28.1.0 Safari/537.36" etag="LGrIphtPgrtW6BYwe4An" version="24.2.5" type="device">
  <diagram name="PÃ¡gina-1" id="y2cU4MqPE3Seo-SNJSKG">
    <mxGraphModel dx="2307" dy="2103" grid="1" gridSize="10" guides="1" tooltips="1" connect="1" arrows="1" fold="1" page="1" pageScale="1" pageWidth="827" pageHeight="1169" math="0" shadow="0">
      <root>
        <mxCell id="0" />
        <mxCell id="1" parent="0" />
        <mxCell id="RNBheS_vnpGrsHCAXqwP-1" value="&lt;p style=&quot;margin:0px;margin-top:4px;text-align:center;&quot;&gt;&lt;i&gt;&amp;lt;&amp;lt;Interface&amp;gt;&amp;gt;&lt;/i&gt;&lt;br&gt;&lt;b&gt;IExampleRepository&lt;/b&gt;&lt;/p&gt;&lt;hr size=&quot;1&quot; style=&quot;border-style:solid;&quot;&gt;&lt;p style=&quot;margin:0px;margin-left:4px;&quot;&gt;&lt;br&gt;&lt;/p&gt;&lt;hr size=&quot;1&quot; style=&quot;border-style:solid;&quot;&gt;&lt;p style=&quot;margin:0px;margin-left:4px;&quot;&gt;+ GetBySearchAsync&amp;lt;List&amp;lt;Models.Example&amp;gt;&amp;gt;: Task&lt;br&gt;&lt;/p&gt;" style="verticalAlign=top;align=left;overflow=fill;html=1;whiteSpace=wrap;" parent="1" vertex="1">
          <mxGeometry x="200" y="90" width="290" height="110" as="geometry" />
        </mxCell>
        <mxCell id="RNBheS_vnpGrsHCAXqwP-3" value="HomeController" style="swimlane;fontStyle=1;align=center;verticalAlign=top;childLayout=stackLayout;horizontal=1;startSize=26;horizontalStack=0;resizeParent=1;resizeParentMax=0;resizeLast=0;collapsible=1;marginBottom=0;whiteSpace=wrap;html=1;" parent="1" vertex="1">
          <mxGeometry x="414" y="260" width="230" height="180" as="geometry" />
        </mxCell>
        <mxCell id="RNBheS_vnpGrsHCAXqwP-4" value="+ _repository: ICadExampleRepository" style="text;strokeColor=none;fillColor=none;align=left;verticalAlign=top;spacingLeft=4;spacingRight=4;overflow=hidden;rotatable=0;points=[[0,0.5],[1,0.5]];portConstraint=eastwest;whiteSpace=wrap;html=1;" parent="RNBheS_vnpGrsHCAXqwP-3" vertex="1">
          <mxGeometry y="26" width="230" height="26" as="geometry" />
        </mxCell>
        <mxCell id="RNBheS_vnpGrsHCAXqwP-5" value="" style="line;strokeWidth=1;fillColor=none;align=left;verticalAlign=middle;spacingTop=-1;spacingLeft=3;spacingRight=3;rotatable=0;labelPosition=right;points=[];portConstraint=eastwest;strokeColor=inherit;" parent="RNBheS_vnpGrsHCAXqwP-3" vertex="1">
          <mxGeometry y="52" width="230" height="8" as="geometry" />
        </mxCell>
        <mxCell id="RNBheS_vnpGrsHCAXqwP-6" value="+ SearchAsync &amp;lt;IActionResult: Task" style="text;strokeColor=none;fillColor=none;align=left;verticalAlign=top;spacingLeft=4;spacingRight=4;overflow=hidden;rotatable=0;points=[[0,0.5],[1,0.5]];portConstraint=eastwest;whiteSpace=wrap;html=1;" parent="RNBheS_vnpGrsHCAXqwP-3" vertex="1">
          <mxGeometry y="60" width="230" height="30" as="geometry" />
        </mxCell>
        <mxCell id="RNBheS_vnpGrsHCAXqwP-18" value="+ InsertAsync &amp;lt;IActionResult: Task" style="text;strokeColor=none;fillColor=none;align=left;verticalAlign=top;spacingLeft=4;spacingRight=4;overflow=hidden;rotatable=0;points=[[0,0.5],[1,0.5]];portConstraint=eastwest;whiteSpace=wrap;html=1;" parent="RNBheS_vnpGrsHCAXqwP-3" vertex="1">
          <mxGeometry y="90" width="230" height="30" as="geometry" />
        </mxCell>
        <mxCell id="RNBheS_vnpGrsHCAXqwP-19" value="+ UpdateAsync &amp;lt;IActionResult: Task" style="text;strokeColor=none;fillColor=none;align=left;verticalAlign=top;spacingLeft=4;spacingRight=4;overflow=hidden;rotatable=0;points=[[0,0.5],[1,0.5]];portConstraint=eastwest;whiteSpace=wrap;html=1;" parent="RNBheS_vnpGrsHCAXqwP-3" vertex="1">
          <mxGeometry y="120" width="230" height="30" as="geometry" />
        </mxCell>
        <mxCell id="RNBheS_vnpGrsHCAXqwP-20" value="+ DeleteAsync &amp;lt;IActionResult: Task" style="text;strokeColor=none;fillColor=none;align=left;verticalAlign=top;spacingLeft=4;spacingRight=4;overflow=hidden;rotatable=0;points=[[0,0.5],[1,0.5]];portConstraint=eastwest;whiteSpace=wrap;html=1;" parent="RNBheS_vnpGrsHCAXqwP-3" vertex="1">
          <mxGeometry y="150" width="230" height="30" as="geometry" />
        </mxCell>
        <mxCell id="RNBheS_vnpGrsHCAXqwP-11" style="edgeStyle=none;rounded=0;orthogonalLoop=1;jettySize=auto;html=1;exitX=0.75;exitY=1;exitDx=0;exitDy=0;entryX=0.41;entryY=-0.038;entryDx=0;entryDy=0;entryPerimeter=0;" parent="1" source="RNBheS_vnpGrsHCAXqwP-1" target="RNBheS_vnpGrsHCAXqwP-3" edge="1">
          <mxGeometry relative="1" as="geometry" />
        </mxCell>
        <mxCell id="RNBheS_vnpGrsHCAXqwP-12" value="ExampleRepository" style="swimlane;fontStyle=1;align=center;verticalAlign=top;childLayout=stackLayout;horizontal=1;startSize=26;horizontalStack=0;resizeParent=1;resizeParentMax=0;resizeLast=0;collapsible=1;marginBottom=0;whiteSpace=wrap;html=1;" parent="1" vertex="1">
          <mxGeometry x="-50" y="320" width="310" height="90" as="geometry" />
        </mxCell>
        <mxCell id="RNBheS_vnpGrsHCAXqwP-13" value="&amp;nbsp;" style="text;strokeColor=none;fillColor=none;align=left;verticalAlign=top;spacingLeft=4;spacingRight=4;overflow=hidden;rotatable=0;points=[[0,0.5],[1,0.5]];portConstraint=eastwest;whiteSpace=wrap;html=1;" parent="RNBheS_vnpGrsHCAXqwP-12" vertex="1">
          <mxGeometry y="26" width="310" height="26" as="geometry" />
        </mxCell>
        <mxCell id="RNBheS_vnpGrsHCAXqwP-14" value="" style="line;strokeWidth=1;fillColor=none;align=left;verticalAlign=middle;spacingTop=-1;spacingLeft=3;spacingRight=3;rotatable=0;labelPosition=right;points=[];portConstraint=eastwest;strokeColor=inherit;" parent="RNBheS_vnpGrsHCAXqwP-12" vertex="1">
          <mxGeometry y="52" width="310" height="8" as="geometry" />
        </mxCell>
        <mxCell id="RNBheS_vnpGrsHCAXqwP-15" value="+ GetBySearchAsync&amp;lt;List&amp;lt;Models.Example&amp;gt;&amp;gt;: Task" style="text;strokeColor=none;fillColor=none;align=left;verticalAlign=top;spacingLeft=4;spacingRight=4;overflow=hidden;rotatable=0;points=[[0,0.5],[1,0.5]];portConstraint=eastwest;whiteSpace=wrap;html=1;" parent="RNBheS_vnpGrsHCAXqwP-12" vertex="1">
          <mxGeometry y="60" width="310" height="30" as="geometry" />
        </mxCell>
        <mxCell id="RNBheS_vnpGrsHCAXqwP-17" style="edgeStyle=none;rounded=0;orthogonalLoop=1;jettySize=auto;html=1;exitX=0.25;exitY=1;exitDx=0;exitDy=0;entryX=0.75;entryY=0;entryDx=0;entryDy=0;" parent="1" source="RNBheS_vnpGrsHCAXqwP-1" target="RNBheS_vnpGrsHCAXqwP-12" edge="1">
          <mxGeometry relative="1" as="geometry" />
        </mxCell>
        <mxCell id="RNBheS_vnpGrsHCAXqwP-48" style="edgeStyle=none;rounded=0;orthogonalLoop=1;jettySize=auto;html=1;entryX=0.5;entryY=0;entryDx=0;entryDy=0;exitX=0.204;exitY=1.107;exitDx=0;exitDy=0;exitPerimeter=0;" parent="1" source="RNBheS_vnpGrsHCAXqwP-39" target="RNBheS_vnpGrsHCAXqwP-41" edge="1">
          <mxGeometry relative="1" as="geometry" />
        </mxCell>
        <mxCell id="RNBheS_vnpGrsHCAXqwP-33" value="&lt;div&gt;&lt;i style=&quot;font-weight: normal;&quot;&gt;&amp;lt;&amp;lt;Interface&amp;gt;&amp;gt;&lt;/i&gt;&lt;/div&gt;IMongoDBContext" style="swimlane;fontStyle=1;align=center;verticalAlign=top;childLayout=stackLayout;horizontal=1;startSize=50;horizontalStack=0;resizeParent=1;resizeParentMax=0;resizeLast=0;collapsible=1;marginBottom=0;whiteSpace=wrap;html=1;" parent="1" vertex="1">
          <mxGeometry x="-40" y="-170" width="230" height="204" as="geometry" />
        </mxCell>
        <mxCell id="RNBheS_vnpGrsHCAXqwP-34" value="+ _database: IMongoDatabase" style="text;strokeColor=none;fillColor=none;align=left;verticalAlign=top;spacingLeft=4;spacingRight=4;overflow=hidden;rotatable=0;points=[[0,0.5],[1,0.5]];portConstraint=eastwest;whiteSpace=wrap;html=1;" parent="RNBheS_vnpGrsHCAXqwP-33" vertex="1">
          <mxGeometry y="50" width="230" height="26" as="geometry" />
        </mxCell>
        <mxCell id="RNBheS_vnpGrsHCAXqwP-35" value="" style="line;strokeWidth=1;fillColor=none;align=left;verticalAlign=middle;spacingTop=-1;spacingLeft=3;spacingRight=3;rotatable=0;labelPosition=right;points=[];portConstraint=eastwest;strokeColor=inherit;" parent="RNBheS_vnpGrsHCAXqwP-33" vertex="1">
          <mxGeometry y="76" width="230" height="8" as="geometry" />
        </mxCell>
        <mxCell id="RNBheS_vnpGrsHCAXqwP-36" value="+ SearchAsync &amp;lt;IActionResult: Task" style="text;strokeColor=none;fillColor=none;align=left;verticalAlign=top;spacingLeft=4;spacingRight=4;overflow=hidden;rotatable=0;points=[[0,0.5],[1,0.5]];portConstraint=eastwest;whiteSpace=wrap;html=1;" parent="RNBheS_vnpGrsHCAXqwP-33" vertex="1">
          <mxGeometry y="84" width="230" height="30" as="geometry" />
        </mxCell>
        <mxCell id="RNBheS_vnpGrsHCAXqwP-37" value="+ InsertAsync &amp;lt;IActionResult: Task" style="text;strokeColor=none;fillColor=none;align=left;verticalAlign=top;spacingLeft=4;spacingRight=4;overflow=hidden;rotatable=0;points=[[0,0.5],[1,0.5]];portConstraint=eastwest;whiteSpace=wrap;html=1;" parent="RNBheS_vnpGrsHCAXqwP-33" vertex="1">
          <mxGeometry y="114" width="230" height="30" as="geometry" />
        </mxCell>
        <mxCell id="RNBheS_vnpGrsHCAXqwP-38" value="+ UpdateAsync &amp;lt;IActionResult: Task" style="text;strokeColor=none;fillColor=none;align=left;verticalAlign=top;spacingLeft=4;spacingRight=4;overflow=hidden;rotatable=0;points=[[0,0.5],[1,0.5]];portConstraint=eastwest;whiteSpace=wrap;html=1;" parent="RNBheS_vnpGrsHCAXqwP-33" vertex="1">
          <mxGeometry y="144" width="230" height="30" as="geometry" />
        </mxCell>
        <mxCell id="RNBheS_vnpGrsHCAXqwP-39" value="+ DeleteAsync &amp;lt;IActionResult: Task" style="text;strokeColor=none;fillColor=none;align=left;verticalAlign=top;spacingLeft=4;spacingRight=4;overflow=hidden;rotatable=0;points=[[0,0.5],[1,0.5]];portConstraint=eastwest;whiteSpace=wrap;html=1;" parent="RNBheS_vnpGrsHCAXqwP-33" vertex="1">
          <mxGeometry y="174" width="230" height="30" as="geometry" />
        </mxCell>
        <mxCell id="RNBheS_vnpGrsHCAXqwP-70" style="edgeStyle=none;rounded=0;orthogonalLoop=1;jettySize=auto;html=1;exitX=0.688;exitY=1.009;exitDx=0;exitDy=0;exitPerimeter=0;" parent="1" source="RNBheS_vnpGrsHCAXqwP-47" target="RNBheS_vnpGrsHCAXqwP-12" edge="1">
          <mxGeometry relative="1" as="geometry" />
        </mxCell>
        <mxCell id="RNBheS_vnpGrsHCAXqwP-41" value="&lt;div&gt;&lt;span style=&quot;font-weight: normal;&quot;&gt;&amp;lt;&amp;lt;&lt;i&gt;Abstract&lt;/i&gt;&amp;gt;&amp;gt;&lt;/span&gt;&lt;/div&gt;MongoDBContext" style="swimlane;fontStyle=1;align=center;verticalAlign=top;childLayout=stackLayout;horizontal=1;startSize=40;horizontalStack=0;resizeParent=1;resizeParentMax=0;resizeLast=0;collapsible=1;marginBottom=0;whiteSpace=wrap;html=1;" parent="1" vertex="1">
          <mxGeometry x="-270" y="90" width="230" height="194" as="geometry" />
        </mxCell>
        <mxCell id="RNBheS_vnpGrsHCAXqwP-42" value="&amp;nbsp;" style="text;strokeColor=none;fillColor=none;align=left;verticalAlign=top;spacingLeft=4;spacingRight=4;overflow=hidden;rotatable=0;points=[[0,0.5],[1,0.5]];portConstraint=eastwest;whiteSpace=wrap;html=1;" parent="RNBheS_vnpGrsHCAXqwP-41" vertex="1">
          <mxGeometry y="40" width="230" height="26" as="geometry" />
        </mxCell>
        <mxCell id="RNBheS_vnpGrsHCAXqwP-43" value="" style="line;strokeWidth=1;fillColor=none;align=left;verticalAlign=middle;spacingTop=-1;spacingLeft=3;spacingRight=3;rotatable=0;labelPosition=right;points=[];portConstraint=eastwest;strokeColor=inherit;" parent="RNBheS_vnpGrsHCAXqwP-41" vertex="1">
          <mxGeometry y="66" width="230" height="8" as="geometry" />
        </mxCell>
        <mxCell id="RNBheS_vnpGrsHCAXqwP-44" value="+ SearchAsync &amp;lt;IActionResult: Task" style="text;strokeColor=none;fillColor=none;align=left;verticalAlign=top;spacingLeft=4;spacingRight=4;overflow=hidden;rotatable=0;points=[[0,0.5],[1,0.5]];portConstraint=eastwest;whiteSpace=wrap;html=1;" parent="RNBheS_vnpGrsHCAXqwP-41" vertex="1">
          <mxGeometry y="74" width="230" height="30" as="geometry" />
        </mxCell>
        <mxCell id="RNBheS_vnpGrsHCAXqwP-45" value="+ InsertAsync &amp;lt;IActionResult: Task" style="text;strokeColor=none;fillColor=none;align=left;verticalAlign=top;spacingLeft=4;spacingRight=4;overflow=hidden;rotatable=0;points=[[0,0.5],[1,0.5]];portConstraint=eastwest;whiteSpace=wrap;html=1;" parent="RNBheS_vnpGrsHCAXqwP-41" vertex="1">
          <mxGeometry y="104" width="230" height="30" as="geometry" />
        </mxCell>
        <mxCell id="RNBheS_vnpGrsHCAXqwP-46" value="+ UpdateAsync &amp;lt;IActionResult: Task" style="text;strokeColor=none;fillColor=none;align=left;verticalAlign=top;spacingLeft=4;spacingRight=4;overflow=hidden;rotatable=0;points=[[0,0.5],[1,0.5]];portConstraint=eastwest;whiteSpace=wrap;html=1;" parent="RNBheS_vnpGrsHCAXqwP-41" vertex="1">
          <mxGeometry y="134" width="230" height="30" as="geometry" />
        </mxCell>
        <mxCell id="RNBheS_vnpGrsHCAXqwP-47" value="+ DeleteAsync &amp;lt;IActionResult: Task" style="text;strokeColor=none;fillColor=none;align=left;verticalAlign=top;spacingLeft=4;spacingRight=4;overflow=hidden;rotatable=0;points=[[0,0.5],[1,0.5]];portConstraint=eastwest;whiteSpace=wrap;html=1;" parent="RNBheS_vnpGrsHCAXqwP-41" vertex="1">
          <mxGeometry y="164" width="230" height="30" as="geometry" />
        </mxCell>
        <mxCell id="RNBheS_vnpGrsHCAXqwP-49" style="edgeStyle=none;rounded=0;orthogonalLoop=1;jettySize=auto;html=1;entryX=0.532;entryY=-0.015;entryDx=0;entryDy=0;entryPerimeter=0;exitX=0.783;exitY=1.2;exitDx=0;exitDy=0;exitPerimeter=0;" parent="1" source="RNBheS_vnpGrsHCAXqwP-39" target="RNBheS_vnpGrsHCAXqwP-1" edge="1">
          <mxGeometry relative="1" as="geometry" />
        </mxCell>
        <mxCell id="RNBheS_vnpGrsHCAXqwP-51" value="CadExample" style="swimlane;fontStyle=1;align=center;verticalAlign=top;childLayout=stackLayout;horizontal=1;startSize=26;horizontalStack=0;resizeParent=1;resizeParentMax=0;resizeLast=0;collapsible=1;marginBottom=0;whiteSpace=wrap;html=1;" parent="1" vertex="1">
          <mxGeometry x="710" y="220" width="160" height="86" as="geometry" />
        </mxCell>
        <mxCell id="RNBheS_vnpGrsHCAXqwP-52" value="+ ..." style="text;strokeColor=none;fillColor=none;align=left;verticalAlign=top;spacingLeft=4;spacingRight=4;overflow=hidden;rotatable=0;points=[[0,0.5],[1,0.5]];portConstraint=eastwest;whiteSpace=wrap;html=1;" parent="RNBheS_vnpGrsHCAXqwP-51" vertex="1">
          <mxGeometry y="26" width="160" height="26" as="geometry" />
        </mxCell>
        <mxCell id="RNBheS_vnpGrsHCAXqwP-53" value="" style="line;strokeWidth=1;fillColor=none;align=left;verticalAlign=middle;spacingTop=-1;spacingLeft=3;spacingRight=3;rotatable=0;labelPosition=right;points=[];portConstraint=eastwest;strokeColor=inherit;" parent="RNBheS_vnpGrsHCAXqwP-51" vertex="1">
          <mxGeometry y="52" width="160" height="8" as="geometry" />
        </mxCell>
        <mxCell id="RNBheS_vnpGrsHCAXqwP-54" value="+ ..." style="text;strokeColor=none;fillColor=none;align=left;verticalAlign=top;spacingLeft=4;spacingRight=4;overflow=hidden;rotatable=0;points=[[0,0.5],[1,0.5]];portConstraint=eastwest;whiteSpace=wrap;html=1;" parent="RNBheS_vnpGrsHCAXqwP-51" vertex="1">
          <mxGeometry y="60" width="160" height="26" as="geometry" />
        </mxCell>
        <mxCell id="RNBheS_vnpGrsHCAXqwP-59" style="edgeStyle=none;rounded=0;orthogonalLoop=1;jettySize=auto;html=1;entryX=0.5;entryY=0;entryDx=0;entryDy=0;exitX=0.412;exitY=1.015;exitDx=0;exitDy=0;exitPerimeter=0;" parent="1" source="RNBheS_vnpGrsHCAXqwP-69" target="RNBheS_vnpGrsHCAXqwP-51" edge="1">
          <mxGeometry relative="1" as="geometry">
            <mxPoint x="879.7999999999997" y="153" as="sourcePoint" />
          </mxGeometry>
        </mxCell>
        <mxCell id="RNBheS_vnpGrsHCAXqwP-64" style="edgeStyle=none;rounded=0;orthogonalLoop=1;jettySize=auto;html=1;entryX=0.5;entryY=0;entryDx=0;entryDy=0;exitX=0.614;exitY=1.008;exitDx=0;exitDy=0;exitPerimeter=0;" parent="1" source="RNBheS_vnpGrsHCAXqwP-69" target="RNBheS_vnpGrsHCAXqwP-60" edge="1">
          <mxGeometry relative="1" as="geometry">
            <mxPoint x="991.5999999999999" y="153" as="sourcePoint" />
          </mxGeometry>
        </mxCell>
        <mxCell id="RNBheS_vnpGrsHCAXqwP-60" value="CadExampleViewModel" style="swimlane;fontStyle=1;align=center;verticalAlign=top;childLayout=stackLayout;horizontal=1;startSize=26;horizontalStack=0;resizeParent=1;resizeParentMax=0;resizeLast=0;collapsible=1;marginBottom=0;whiteSpace=wrap;html=1;" parent="1" vertex="1">
          <mxGeometry x="980" y="210" width="160" height="86" as="geometry" />
        </mxCell>
        <mxCell id="RNBheS_vnpGrsHCAXqwP-61" value="+ ...." style="text;strokeColor=none;fillColor=none;align=left;verticalAlign=top;spacingLeft=4;spacingRight=4;overflow=hidden;rotatable=0;points=[[0,0.5],[1,0.5]];portConstraint=eastwest;whiteSpace=wrap;html=1;" parent="RNBheS_vnpGrsHCAXqwP-60" vertex="1">
          <mxGeometry y="26" width="160" height="26" as="geometry" />
        </mxCell>
        <mxCell id="RNBheS_vnpGrsHCAXqwP-62" value="" style="line;strokeWidth=1;fillColor=none;align=left;verticalAlign=middle;spacingTop=-1;spacingLeft=3;spacingRight=3;rotatable=0;labelPosition=right;points=[];portConstraint=eastwest;strokeColor=inherit;" parent="RNBheS_vnpGrsHCAXqwP-60" vertex="1">
          <mxGeometry y="52" width="160" height="8" as="geometry" />
        </mxCell>
        <mxCell id="RNBheS_vnpGrsHCAXqwP-63" value="+ class ..." style="text;strokeColor=none;fillColor=none;align=left;verticalAlign=top;spacingLeft=4;spacingRight=4;overflow=hidden;rotatable=0;points=[[0,0.5],[1,0.5]];portConstraint=eastwest;whiteSpace=wrap;html=1;" parent="RNBheS_vnpGrsHCAXqwP-60" vertex="1">
          <mxGeometry y="60" width="160" height="26" as="geometry" />
        </mxCell>
        <mxCell id="RNBheS_vnpGrsHCAXqwP-65" value="DependencyInjectionConfiguration" style="swimlane;fontStyle=1;align=center;verticalAlign=top;childLayout=stackLayout;horizontal=1;startSize=26;horizontalStack=0;resizeParent=1;resizeParentMax=0;resizeLast=0;collapsible=1;marginBottom=0;whiteSpace=wrap;html=1;" parent="1" vertex="1">
          <mxGeometry x="420" y="-140" width="370" height="90" as="geometry" />
        </mxCell>
        <mxCell id="RNBheS_vnpGrsHCAXqwP-66" value="&amp;nbsp;" style="text;strokeColor=none;fillColor=none;align=left;verticalAlign=top;spacingLeft=4;spacingRight=4;overflow=hidden;rotatable=0;points=[[0,0.5],[1,0.5]];portConstraint=eastwest;whiteSpace=wrap;html=1;" parent="RNBheS_vnpGrsHCAXqwP-65" vertex="1">
          <mxGeometry y="26" width="370" height="26" as="geometry" />
        </mxCell>
        <mxCell id="RNBheS_vnpGrsHCAXqwP-67" value="" style="line;strokeWidth=1;fillColor=none;align=left;verticalAlign=middle;spacingTop=-1;spacingLeft=3;spacingRight=3;rotatable=0;labelPosition=right;points=[];portConstraint=eastwest;strokeColor=inherit;" parent="RNBheS_vnpGrsHCAXqwP-65" vertex="1">
          <mxGeometry y="52" width="370" height="8" as="geometry" />
        </mxCell>
        <mxCell id="RNBheS_vnpGrsHCAXqwP-68" value="+ AddDependency(IServiceCollection): IServiceCollection" style="text;strokeColor=none;fillColor=none;align=left;verticalAlign=top;spacingLeft=4;spacingRight=4;overflow=hidden;rotatable=0;points=[[0,0.5],[1,0.5]];portConstraint=eastwest;whiteSpace=wrap;html=1;" parent="RNBheS_vnpGrsHCAXqwP-65" vertex="1">
          <mxGeometry y="60" width="370" height="30" as="geometry" />
        </mxCell>
        <mxCell id="RNBheS_vnpGrsHCAXqwP-69" value="&lt;p style=&quot;margin:0px;margin-top:4px;text-align:center;&quot;&gt;&lt;i&gt;&amp;lt;&amp;lt;Abstract&amp;gt;&amp;gt;&lt;/i&gt;&lt;br&gt;&lt;b&gt;BaseModel&lt;/b&gt;&lt;/p&gt;&lt;hr size=&quot;1&quot; style=&quot;border-style:solid;&quot;&gt;&lt;p style=&quot;margin:0px;margin-left:4px;&quot;&gt;+ Id : Guid&lt;br&gt;&lt;/p&gt;&lt;hr size=&quot;1&quot; style=&quot;border-style:solid;&quot;&gt;&lt;p style=&quot;margin:0px;margin-left:4px;&quot;&gt;&lt;br&gt;&lt;/p&gt;" style="verticalAlign=top;align=left;overflow=fill;html=1;whiteSpace=wrap;" parent="1" vertex="1">
          <mxGeometry x="840" y="40" width="190" height="100" as="geometry" />
        </mxCell>
        <mxCell id="RNBheS_vnpGrsHCAXqwP-71" value="&lt;p style=&quot;margin:0px;margin-top:4px;text-align:center;&quot;&gt;&lt;i&gt;&amp;lt;&amp;lt;Abstract&amp;gt;&amp;gt;&lt;/i&gt;&lt;br&gt;&lt;b&gt;ControllerBase&lt;/b&gt;&lt;/p&gt;&lt;hr size=&quot;1&quot; style=&quot;border-style:solid;&quot;&gt;&lt;p style=&quot;margin:0px;margin-left:4px;&quot;&gt;...&lt;br&gt;&lt;/p&gt;&lt;hr size=&quot;1&quot; style=&quot;border-style:solid;&quot;&gt;&lt;p style=&quot;margin:0px;margin-left:4px;&quot;&gt;...&lt;/p&gt;" style="verticalAlign=top;align=left;overflow=fill;html=1;whiteSpace=wrap;" parent="1" vertex="1">
          <mxGeometry x="570" y="60" width="190" height="110" as="geometry" />
        </mxCell>
        <mxCell id="RNBheS_vnpGrsHCAXqwP-72" style="edgeStyle=none;rounded=0;orthogonalLoop=1;jettySize=auto;html=1;entryX=0.617;entryY=0.01;entryDx=0;entryDy=0;entryPerimeter=0;" parent="1" source="RNBheS_vnpGrsHCAXqwP-71" target="RNBheS_vnpGrsHCAXqwP-3" edge="1">
          <mxGeometry relative="1" as="geometry" />
        </mxCell>
        <mxCell id="RNBheS_vnpGrsHCAXqwP-83" value="Startup" style="swimlane;fontStyle=1;align=center;verticalAlign=top;childLayout=stackLayout;horizontal=1;startSize=26;horizontalStack=0;resizeParent=1;resizeParentMax=0;resizeLast=0;collapsible=1;marginBottom=0;whiteSpace=wrap;html=1;" parent="1" vertex="1">
          <mxGeometry x="540" y="-390" width="280" height="180" as="geometry" />
        </mxCell>
        <mxCell id="RNBheS_vnpGrsHCAXqwP-84" value="+ field: type" style="text;strokeColor=none;fillColor=none;align=left;verticalAlign=top;spacingLeft=4;spacingRight=4;overflow=hidden;rotatable=0;points=[[0,0.5],[1,0.5]];portConstraint=eastwest;whiteSpace=wrap;html=1;" parent="RNBheS_vnpGrsHCAXqwP-83" vertex="1">
          <mxGeometry y="26" width="280" height="26" as="geometry" />
        </mxCell>
        <mxCell id="RNBheS_vnpGrsHCAXqwP-85" value="" style="line;strokeWidth=1;fillColor=none;align=left;verticalAlign=middle;spacingTop=-1;spacingLeft=3;spacingRight=3;rotatable=0;labelPosition=right;points=[];portConstraint=eastwest;strokeColor=inherit;" parent="RNBheS_vnpGrsHCAXqwP-83" vertex="1">
          <mxGeometry y="52" width="280" height="8" as="geometry" />
        </mxCell>
        <mxCell id="RNBheS_vnpGrsHCAXqwP-86" value="+ Configuration(type): IConfiguration" style="text;strokeColor=none;fillColor=none;align=left;verticalAlign=top;spacingLeft=4;spacingRight=4;overflow=hidden;rotatable=0;points=[[0,0.5],[1,0.5]];portConstraint=eastwest;whiteSpace=wrap;html=1;" parent="RNBheS_vnpGrsHCAXqwP-83" vertex="1">
          <mxGeometry y="60" width="280" height="30" as="geometry" />
        </mxCell>
        <mxCell id="RNBheS_vnpGrsHCAXqwP-96" value="+ Environment(type): IWebHostEnvironment" style="text;strokeColor=none;fillColor=none;align=left;verticalAlign=top;spacingLeft=4;spacingRight=4;overflow=hidden;rotatable=0;points=[[0,0.5],[1,0.5]];portConstraint=eastwest;whiteSpace=wrap;html=1;" parent="RNBheS_vnpGrsHCAXqwP-83" vertex="1">
          <mxGeometry y="90" width="280" height="30" as="geometry" />
        </mxCell>
        <mxCell id="RNBheS_vnpGrsHCAXqwP-97" value="+ ConfigureServices(type):&amp;nbsp;" style="text;strokeColor=none;fillColor=none;align=left;verticalAlign=top;spacingLeft=4;spacingRight=4;overflow=hidden;rotatable=0;points=[[0,0.5],[1,0.5]];portConstraint=eastwest;whiteSpace=wrap;html=1;" parent="RNBheS_vnpGrsHCAXqwP-83" vertex="1">
          <mxGeometry y="120" width="280" height="30" as="geometry" />
        </mxCell>
        <mxCell id="RNBheS_vnpGrsHCAXqwP-98" value="+ Configure(type):&amp;nbsp;" style="text;strokeColor=none;fillColor=none;align=left;verticalAlign=top;spacingLeft=4;spacingRight=4;overflow=hidden;rotatable=0;points=[[0,0.5],[1,0.5]];portConstraint=eastwest;whiteSpace=wrap;html=1;" parent="RNBheS_vnpGrsHCAXqwP-83" vertex="1">
          <mxGeometry y="150" width="280" height="30" as="geometry" />
        </mxCell>
        <mxCell id="RNBheS_vnpGrsHCAXqwP-87" value="&lt;div&gt;&lt;span style=&quot;font-weight: normal;&quot;&gt;&lt;i&gt;&amp;lt;&amp;lt;Static&amp;gt;&amp;gt;&lt;/i&gt;&lt;/span&gt;&lt;/div&gt;Program" style="swimlane;fontStyle=1;align=center;verticalAlign=top;childLayout=stackLayout;horizontal=1;startSize=40;horizontalStack=0;resizeParent=1;resizeParentMax=0;resizeLast=0;collapsible=1;marginBottom=0;whiteSpace=wrap;html=1;" parent="1" vertex="1">
          <mxGeometry x="220" y="-380" width="230" height="100" as="geometry" />
        </mxCell>
        <mxCell id="RNBheS_vnpGrsHCAXqwP-88" value="+ field: type" style="text;strokeColor=none;fillColor=none;align=left;verticalAlign=top;spacingLeft=4;spacingRight=4;overflow=hidden;rotatable=0;points=[[0,0.5],[1,0.5]];portConstraint=eastwest;whiteSpace=wrap;html=1;" parent="RNBheS_vnpGrsHCAXqwP-87" vertex="1">
          <mxGeometry y="40" width="230" height="26" as="geometry" />
        </mxCell>
        <mxCell id="RNBheS_vnpGrsHCAXqwP-89" value="" style="line;strokeWidth=1;fillColor=none;align=left;verticalAlign=middle;spacingTop=-1;spacingLeft=3;spacingRight=3;rotatable=0;labelPosition=right;points=[];portConstraint=eastwest;strokeColor=inherit;" parent="RNBheS_vnpGrsHCAXqwP-87" vertex="1">
          <mxGeometry y="66" width="230" height="8" as="geometry" />
        </mxCell>
        <mxCell id="RNBheS_vnpGrsHCAXqwP-90" value="+ CreateBuilder(type): IHostBuilder" style="text;strokeColor=none;fillColor=none;align=left;verticalAlign=top;spacingLeft=4;spacingRight=4;overflow=hidden;rotatable=0;points=[[0,0.5],[1,0.5]];portConstraint=eastwest;whiteSpace=wrap;html=1;" parent="RNBheS_vnpGrsHCAXqwP-87" vertex="1">
          <mxGeometry y="74" width="230" height="26" as="geometry" />
        </mxCell>
      </root>
    </mxGraphModel>
  </diagram>
</mxfile>
